PathFileType	4	(X/Y/Z)	D:\TRACE\v60_Jaco2_6-2-23\BothDRS_Motion1_1-platform.trc
DataRate	CameraRate	NumFrames	NumMarkers	Units	OrigDataRate	OrigDataStartFrame	OrigNumFrames
100.00	100.00	      30	5	mm	100.00	2572	      6857
Frame#	Time	Left_Front			Right_Front			Left_Aft			Right_Aft			Post			
		X1	Y1	Z1	X2	Y2	Z2	X3	Y3	Z3	X4	Y4	Z4	X5	Y5	Z5	

2572	25.710	-759.12872	24.34183	-635.43982	810.99994	25.86834	-640.30780	-667.27649	-2.89533	499.44540	775.43506	-4.14302	509.14908	27.12366	1330.63123	-928.14038	
2573	25.720	-759.47113	24.15056	-635.58344	810.38031	25.41537	-640.57257	-667.55743	-2.69256	499.44797	774.98749	-3.73445	509.15375	26.70085	1329.93628	-929.98932	
2574	25.730	-759.71356	23.74968	-635.51154	810.10986	25.02371	-640.60132	-667.96454	-2.55284	499.40002	774.42413	-3.55033	509.02032	26.42153	1329.31555	-930.92340	
2575	25.740	-760.39294	23.27779	-635.64844	809.44324	24.56401	-640.90558	-668.51746	-2.32037	499.29797	773.71814	-3.26528	508.95508	26.08727	1328.95947	-932.18451	
2576	25.750	-761.04681	22.70501	-635.81201	809.08899	24.16185	-640.86786	-669.23517	-2.11487	499.18204	773.07495	-2.81338	509.09149	25.11082	1328.06226	-933.02209	
2577	25.760	-761.85864	21.94209	-635.63055	808.35138	23.19412	-640.96094	-670.10492	-1.62779	499.05304	772.78528	-2.50868	508.86578	24.46279	1327.34888	-933.72937	
2578	25.770	-762.51233	21.27122	-635.93304	807.57581	22.79310	-641.11401	-670.46521	-1.31257	498.92490	771.36963	-2.25190	508.02142	23.59520	1326.93787	-934.02954	
2579	25.780	-763.00238	21.05696	-636.31219	807.02338	22.62636	-641.19318	-671.07172	-0.98553	498.89487	770.80750	-2.15158	507.90561	23.01349	1325.94385	-934.34528	
2580	25.790	-763.52698	20.80947	-636.42725	806.58698	22.25488	-641.30469	-671.64130	-0.78240	498.75342	770.22614	-1.91001	507.82230	22.60721	1325.36096	-934.68878	
2581	25.800	-763.93170	20.53802	-636.18463	805.92548	21.67626	-641.62463	-672.39050	-0.50087	498.69724	770.22699	-1.10647	508.35364	21.98433	1324.89697	-935.79034	
2582	25.810	-764.64105	20.02551	-636.57288	805.10583	21.20762	-641.75104	-673.01575	-0.00514	498.48444	769.74811	-0.83965	508.24698	21.48841	1324.13806	-936.91907	
2583	25.820	-765.40399	19.39633	-636.60236	804.53766	20.83184	-641.67950	-673.65192	0.34254	498.45233	768.78961	-0.45371	508.20966	20.30010	1323.48999	-937.98566	
2584	25.830	-766.39185	18.59395	-636.54596	803.68695	20.18794	-641.68073	-674.29010	0.52412	498.40973	768.17731	-0.14950	508.34528	19.82119	1322.87476	-939.64868	
2585	25.840	-767.07678	18.42788	-636.70093	803.01208	19.65643	-641.89960	-675.20447	0.79036	498.33206	767.52753	0.07942	508.28674	19.12741	1322.04846	-941.08258	
2586	25.850	-767.65405	18.13461	-636.98938	802.59674	19.24158	-642.07672	-675.67096	1.04734	498.09592	766.65234	0.42202	508.19666	18.54888	1321.40442	-942.56140	
2587	25.860	-768.31866	17.62221	-637.02905	802.00433	18.95334	-642.21838	-676.40479	1.59567	497.92270	766.05035	0.78587	508.09079	17.88887	1321.01379	-943.83270	
2588	25.870	-768.86584	17.07163	-637.16132	801.02606	18.56844	-642.34601	-677.28302	1.87312	497.88403	765.49884	1.30188	507.84122	17.04828	1320.25574	-945.15930	
2589	25.880	-769.60919	16.84895	-637.38733	800.19696	17.88261	-642.40912	-678.00525	2.16607	497.88391	765.36218	1.68452	507.76089	16.53996	1319.57483	-945.95734	
2590	25.890	-770.62488	16.28439	-637.33466	799.80707	17.51155	-642.37341	-678.36401	2.39014	497.83511	763.70013	1.95438	507.78760	15.75294	1318.57935	-946.68225	
2591	25.900	-771.30310	15.91139	-637.59680	798.87695	17.00809	-642.63965	-679.29828	2.85103	497.70853	763.19293	2.28641	507.75180	14.72812	1317.89331	-947.32861	
2592	25.910	-772.01422	15.14490	-637.54297	798.03253	16.40447	-642.90656	-680.11780	3.26502	497.44522	762.78070	2.87840	507.69431	14.21138	1317.40698	-947.85175	
2593	25.920	-772.57611	14.39442	-637.70282	797.30762	15.96756	-642.74927	-680.87207	3.55428	497.39728	762.18347	3.45036	507.72198	13.04368	1316.51868	-948.83014	
2594	25.930	-773.31177	14.05391	-637.76843	796.29602	15.15919	-643.05176	-681.34637	3.82097	497.41263	761.46393	3.79769	507.66092	12.51348	1315.83411	-949.52551	
2595	25.940	-774.46503	13.50053	-637.72791	795.32727	14.57158	-643.39349	-682.47382	4.14608	497.30167	760.86072	4.12433	507.53427	11.54428	1315.23657	-950.91821	
2596	25.950	-775.09882	13.30336	-637.95825	794.52271	14.25279	-643.63672	-683.48389	4.63112	497.12921	761.02087	4.59731	507.65784	11.04617	1314.31274	-951.66095	
2597	25.960	-775.82214	12.84696	-638.22211	793.86176	13.87104	-643.59119	-683.96350	4.91066	496.90277	758.89154	4.80921	507.69205	10.21615	1313.83838	-953.17737	
2598	25.970	-776.54468	12.27143	-638.28333	793.26630	13.47739	-643.49170	-684.73053	5.17658	496.90314	758.49927	5.29493	507.53622	9.51674	1313.11084	-954.64020	
2599	25.980	-777.39978	11.97754	-638.36115	792.25317	12.98700	-643.72595	-685.54572	5.36380	496.81635	757.77496	5.58780	507.31729	8.63873	1312.51904	-955.75629	
2600	25.990	-778.32507	11.48275	-638.41290	791.54858	12.71057	-643.81207	-686.56812	5.98008	496.63846	757.00183	5.90825	507.38641	7.75281	1311.84766	-957.25677	
2601	26.000	-779.31775	10.90842	-638.72601	790.57526	12.07041	-643.78333	-687.27612	6.25658	496.44080	755.88550	6.16296	507.03220	6.99655	1310.98120	-958.13898	
